<svg xmlns="http://www.w3.org/2000/svg" fill="none" viewBox="0 0 20 20"><path fill="#fff" d="M18 7h-2.5c-.827 0-1.5-.673-1.5-1.5V2H6v16h12V7z"/><path fill="#fff" d="M18 6v-.293l-3-3V5.5c0 .275.225.5.5.5H18z"/><path fill="#605E5C" fill-rule="evenodd" d="M18.707 5 15 1.293A1 1 0 0 0 14.293 1H6a1 1 0 0 0-1 1v16a1 1 0 0 0 1 1h12a1 1 0 0 0 1-1V5.707A1 1 0 0 0 18.707 5zM18 5.707V6h-2.5a.501.501 0 0 1-.5-.5V2.707l3 3zM6 2.2v15.6c0 .11.09.2.2.2h11.6a.2.2 0 0 0 .2-.2V7h-2.5A1.5 1.5 0 0 1 14 5.5V2H6.2a.2.2 0 0 0-.2.2z" clip-rule="evenodd" opacity=".64"/><path fill="#134A2C" fill-rule="evenodd" d="M12.5 12h1c.275 0 .5.225.5.5s-.225.5-.5.5h-1a.501.501 0 0 1-.5-.5c0-.275.225-.5.5-.5zm3 0h1c.275 0 .5.225.5.5s-.225.5-.5.5h-1a.501.501 0 0 1-.5-.5c0-.275.225-.5.5-.5z" clip-rule="evenodd"/><path fill="#21A366" fill-rule="evenodd" d="M12.5 10h1c.275 0 .5.225.5.5s-.225.5-.5.5h-1a.501.501 0 0 1-.5-.5c0-.275.225-.5.5-.5zm3 0h1c.275 0 .5.225.5.5s-.225.5-.5.5h-1a.501.501 0 0 1-.5-.5c0-.275.225-.5.5-.5z" clip-rule="evenodd"/><path fill="#33C481" d="M16.5 8h-1c-.275 0-.5.225-.5.5s.225.5.5.5h1c.275 0 .5-.225.5-.5s-.225-.5-.5-.5z"/><path fill="#21A366" d="M13.5 8h-1c-.275 0-.5.225-.5.5s.225.5.5.5h1c.275 0 .5-.225.5-.5s-.225-.5-.5-.5z"/><path fill="#107C41" d="M2 16h8a1 1 0 0 0 1-1V7a1 1 0 0 0-1-1H2a1 1 0 0 0-1 1v8a1 1 0 0 0 1 1z"/><path fill="#fff" d="m4.606 14 3.707-6H7.15l-3.755 6h1.21z"/><path fill="#fff" d="M7.374 14 3.668 8H4.83l3.754 6h-1.21z"/></svg>