<?xml version="1.0" encoding="utf-8"?>
<!-- Generator: Adobe Illustrator 27.0.0, SVG Export Plug-In . SVG Version: 6.00 Build 0)  -->
<svg version="1.1" id="Layer_1" xmlns="http://www.w3.org/2000/svg" xmlns:xlink="http://www.w3.org/1999/xlink" x="0px" y="0px"
	 viewBox="0 0 30 20" style="enable-background:new 0 0 30 20;" xml:space="preserve">
<style type="text/css">
	.st0{fill-rule:evenodd;clip-rule:evenodd;fill:#00558C;}
</style>
<path class="st0" d="M1.6,0h26.8C29.3,0,30,0.7,30,1.6v0.2c0,0.9-0.7,1.6-1.6,1.6H1.6C0.7,3.3,0,2.6,0,1.8V1.6C0,0.7,0.7,0,1.6,0z
	 M28.4,8.3H1.6C0.7,8.3,0,9,0,9.9v0.2c0,0.9,0.7,1.6,1.6,1.6h26.8c0.9,0,1.6-0.7,1.6-1.6V9.9C30,9,29.3,8.3,28.4,8.3z M28.4,16.7
	H1.6c-0.9,0-1.6,0.7-1.6,1.6v0.2C0,19.3,0.7,20,1.6,20h26.8c0.9,0,1.6-0.7,1.6-1.6v-0.2C30,17.4,29.3,16.7,28.4,16.7z"/>
</svg>
