<?xml version="1.0" encoding="utf-8"?>
<!-- Generator: Adobe Illustrator 27.0.0, SVG Export Plug-In . SVG Version: 6.00 Build 0)  -->
<svg version="1.1" id="Layer_1" xmlns="http://www.w3.org/2000/svg" xmlns:xlink="http://www.w3.org/1999/xlink" x="0px" y="0px"
	 viewBox="0 0 380 227" style="enable-background:new 0 0 380 227;" xml:space="preserve">
<style type="text/css">
	.st0{fill:#BCBEC0;}
	.st1{fill:#18558C;}
	.st2{opacity:0.2;enable-background:new    ;}
	.st3{fill:#CCCCCC;}
	.st4{fill:#FFFFFF;}
	.st5{fill:#F9B499;}
	.st6{opacity:0.39;fill:#FFFFFF;enable-background:new    ;}
	.st7{fill:#D1D3D4;}
	.st8{opacity:0.5;fill:#FFFFFF;enable-background:new    ;}
	.st9{fill:#F4A68E;}
</style>
<path class="st0" d="M67.2,5.7l1,4.8l24.2,5.2L67.2,5.7z"/>
<path class="st1" d="M82.3,219.1v6.8c0,0.1,0.1,0.3,0.2,0.4c0.1,0.1,0.2,0.2,0.4,0.2h3.5c0.1,0,0.3-0.1,0.4-0.2
	c0.1-0.1,0.2-0.2,0.2-0.4s0.1-0.3,0.2-0.4c0.1-0.1,0.2-0.2,0.4-0.2h1c0,0,0.3,0.8,2,1.1h6.5c0.2,0,0.4-0.1,0.6-0.2
	c0.2-0.1,0.3-0.3,0.4-0.5c0.1-0.2,0.1-0.4,0-0.6c-0.1-0.2-0.2-0.4-0.3-0.5c-0.9-0.7-2.8-1.5-6.6-1.6c-1.1-0.2-2.1-0.7-2.8-1.5
	c-0.8-0.8-1.3-1.8-1.4-2.9L82.3,219.1z"/>
<path class="st1" d="M64.1,212.8l-3.2,4.6c-0.2,0.2-0.2,0.5-0.2,0.8c0.1,0.3,0.2,0.5,0.4,0.7l2,1.4c0.2,0.2,0.5,0.2,0.8,0.2
	c0.3-0.1,0.5-0.2,0.7-0.4l1.3,0.9c0,0-0.2,0.8,1,2l5.3,3.7c0.2,0.1,0.4,0.2,0.6,0.2c0.2,0,0.4-0.1,0.6-0.2c0.2-0.1,0.3-0.3,0.4-0.5
	c0.1-0.2,0.1-0.4,0-0.6c-0.3-1.1-1.5-2.8-4.5-5.1c0,0-3.2-2.6-1.5-6.2L64.1,212.8z"/>
<path d="M85.4,51.7c0.1,0.4,0.3,0.7,0.6,1c0.3,0.3,0.7,0.4,1,0.5c2.6,0.3,3.8,1.5,3.8,1.5c5.9,3.5,1.1,12.1,1.1,12.1
	c-2.7,5,3.4,10.7,3.4,10.7c6.3,7.2-1,9.6-1,9.6l-33.1,8.8c-10.9-5-10-12.9-10-12.9s-0.1-8.2,9.2-15.9c0,0,4.2-3.3,4.6-8.6
	c0,0,1.9-18,17.2-10.6c0.8,0.4,1.5,0.9,2,1.6C84.7,50,85.1,50.8,85.4,51.7C85.4,51.7,85.4,51.7,85.4,51.7z"/>
<path d="M96,89.4L96,89.2c2.2-1.2,3.5-2.7,4-4.4c0.6-2.3-0.5-4.7-1.5-6.3c-1-1.5-2.3-2.8-3.8-3.8c-1.6-1.3-2.9-3-3.7-4.8l0.2-0.1
	c0.9,1.8,2.1,3.5,3.7,4.7c1.5,1.1,2.8,2.4,3.8,3.9c1.5,2.3,2,4.5,1.5,6.4C99.7,86.6,98.3,88.1,96,89.4z"/>
<path d="M51.1,83c0-0.1-3.7-6.9,2.7-13.1c0.7-0.7,1.6-1.3,2.4-1.8c1.2-0.8,3.5-2.7,5.7-6.9c0.9-1.8,1.5-3.7,1.9-5.7
	c0.6-3.1,2.9-10.3,11.3-11.4c0.1,0,9.5-0.4,9.9,6.4h-0.2c-0.4-6.7-9.6-6.3-9.7-6.3c-8,1-10.4,7.5-11.2,11.2c-0.4,2-1,3.9-1.9,5.7
	c-2.2,4.3-4.5,6.2-5.7,7c-0.9,0.5-1.6,1.1-2.4,1.8c-6.3,6.1-2.7,12.8-2.7,12.9L51.1,83z"/>
<path d="M59.9,99.4c-0.1-0.1-10-5.9-8.4-14.1l0.2,0c-1.5,8,8.2,13.8,8.3,13.9L59.9,99.4z"/>
<path d="M63.8,212.7c0,0,1.7,3.1,3.9,3.5c0,0,3.2-12.7,6.4-19c0,0,10.7-18.7,13.8-21.7c0,0,11.6-11.1,5.6-27.2
	c0,0-5.5-13.9-5.1-23.4l-3.9,8.2L78.9,153L66,150.5l8.4,24c0,0-6.4,7.8-8.4,26.1C66,200.6,64.6,210.9,63.8,212.7z"/>
<path class="st2" d="M63.8,212.7c0,0,1.7,3.1,3.9,3.5c0,0,3.2-12.7,6.4-19c0,0,10.7-18.7,13.8-21.7c0,0,11.6-11.1,5.6-27.2
	c0,0-5.5-13.9-5.1-23.4l-3.9,8.2L78.9,153L66,150.5l8.4,24c0,0-6.4,7.8-8.4,26.1C66,200.6,64.6,210.9,63.8,212.7z"/>
<path class="st1" d="M81.7,103.8c1.5-8.8-6.6-23.7-6.6-23.7c-13.6,2.8-10.3,10.5-10.3,10.5l-2.5,30.9c0,0-6.3,10-5.1,19.4
	c0.9,6.8,7.3,11.7,14,9.6c1.1-0.3,2.2-0.7,3.2-1.2c0,0,11-4.5,7.4-24.8L81.7,103.8z"/>
<path class="st0" d="M349.2,115.3l-1.4,9l-38.9,7.2L349.2,115.3z"/>
<path d="M252.4,90.7c0,0,17.3,7.7,15.7,16.2c0,0,2.6,3.9-15.7,14.8V90.7z"/>
<path class="st2" d="M252.4,90.7c0,0,17.3,7.7,15.7,16.2c0,0,2.6,3.9-15.7,14.8V90.7z"/>
<path d="M110.1,111.8c0,0-10.3-9.9,1.6-16l-0.2,17.3L110.1,111.8z"/>
<path class="st2" d="M110.1,111.8c0,0-10.3-9.9,1.6-16l-0.2,17.3L110.1,111.8z"/>
<path class="st0" d="M221.8,55.5H110.7v125.3h111.1V55.5z"/>
<path class="st3" d="M252.4,72.2H120.2v125.3h132.1V72.2z"/>
<path class="st0" d="M162,90h-19.1c-1.6,0-2.9,1.3-2.9,2.9v0c0,1.6,1.3,2.9,2.9,2.9H162c1.6,0,2.9-1.3,2.9-2.9v0
	C164.9,91.3,163.6,90,162,90z"/>
<path class="st0" d="M193.8,104.8h-60.8c-1.6,0-2.9,1.3-2.9,2.9v0c0,1.6,1.3,2.9,2.9,2.9h60.8c1.6,0,2.9-1.3,2.9-2.9v0
	C196.7,106.1,195.4,104.8,193.8,104.8z"/>
<path class="st0" d="M168.2,117.2h-35.3c-1.6,0-2.9,1.3-2.9,2.9v0c0,1.6,1.3,2.9,2.9,2.9h35.3c1.6,0,2.9-1.3,2.9-2.9v0
	C171.1,118.5,169.8,117.2,168.2,117.2z"/>
<path class="st0" d="M202.8,117.2h-20.3c-1.6,0-2.9,1.3-2.9,2.9v0c0,1.6,1.3,2.9,2.9,2.9h20.3c1.6,0,2.9-1.3,2.9-2.9v0
	C205.7,118.5,204.4,117.2,202.8,117.2z"/>
<path class="st0" d="M214.3,117.2h-2.6c-1.6,0-2.9,1.3-2.9,2.9v0c0,1.6,1.3,2.9,2.9,2.9h2.6c1.6,0,2.9-1.3,2.9-2.9v0
	C217.1,118.5,215.9,117.2,214.3,117.2z"/>
<path class="st0" d="M222.4,104.8H203c-1.6,0-2.9,1.3-2.9,2.9v0c0,1.6,1.3,2.9,2.9,2.9h19.4c1.6,0,2.9-1.3,2.9-2.9v0
	C225.3,106.1,224,104.8,222.4,104.8z"/>
<path class="st0" d="M183.4,90h-10.2c-1.6,0-2.9,1.3-2.9,2.9v0c0,1.6,1.3,2.9,2.9,2.9h10.2c1.6,0,2.9-1.3,2.9-2.9v0
	C186.3,91.3,185,90,183.4,90z"/>
<path class="st2" d="M210.1,72.2v24.3L220,90l10.1,6.6V72.2H210.1z"/>
<path class="st2" d="M60.7,124.4c0,0,7.8,1.4,11.5-2.1l-0.1-1.4c0,0-5.6,1.3-9.6,0L60.7,124.4z"/>
<path class="st3" d="M75.1,80.1c0,0,3.6,5,6.7,4.1c0,0,1.5,0,1.3-4.1c0,0,8.6,8.6,7.7,23.2l-9.1,0.2c0,0,0.8-3.7-1.9-12.4
	C79.8,91.1,76.6,82.8,75.1,80.1z"/>
<path class="st3" d="M82.2,127c0,0,4.6,0.7,7.1-3.3c0.9-1.4,1.2-3.1,1-4.7l-0.2-1.8H89l-1.5,5.5h-3v1.9h-2.6L82.2,127z"/>
<path class="st1" d="M93.5,148.3c0,0-5.6-14-5.1-23.4c0,0,3-2.5,1.8-7.8c0,0,3.7,0.3,3.3-4.1c0,0-0.4-3.8-2.5-2.9l1.9-6.8h-2
	c0-1.7,0.1-8.6-2.6-14.8c-1.4-3-3.1-5.9-5.2-8.5c-0.3-0.3-0.5-0.6-0.7-0.8c3.5,1.1,6.7,2.9,9.5,5.3c4.9,4.4,9.9,12.3,10.8,26.1h3.5
	v7.6c0,0-10.8,3.5-10.2-4.4c0,0-1.8,2.2-0.3,8c0.6,2.5,1.7,4.9,3,7c1.9,3,5.3,9.8,3.1,15.4C101.6,144.1,99.2,149.1,93.5,148.3z"/>
<path class="st4" d="M96,113.8h-0.2c1.1-17-5.4-25.5-5.5-25.6l0.1-0.1C90.5,88.1,97,96.6,96,113.8z"/>
<path d="M66,150.5c0,0-0.5,5,3.2,10.4c0,0,3.5,6.6,2.7,18.2c0,0-1.7,10.3,2.2,18.1c1.5,2.9,2.8,6,3.7,9.2l3.8,13.3l5.5-1.2
	c-1.4-6-1.9-12.1-1.7-18.3l-1.3-38.1c0,0,0.1-28.9,4.2-37.3c0,0-2,2.2-6.2,2.1c0,0,2.7,16.3-8.2,22.3C74,149.3,69.1,151.7,66,150.5z
	"/>
<path class="st5" d="M75.1,72.6c0,0,0.2,2.8,0,7.5c0,0,3.2,5.1,6.9,4.2c0,0,1.3,0,1.1-4.2c0,0-1.1-1.1-1.6-6.1L75.1,72.6z"/>
<path class="st2" d="M100.8,133.1c0,0-2.8,4.7-6.6,2.2c-0.7-0.5-1.3-1.1-1.7-1.8c-0.1-0.1-0.1-0.2-0.2-0.3c-1.6-3.1-2-6.6-1-9.9
	c0.4-1.5,0.7-4-0.1-6.1c-0.2,0-0.4,0.1-0.5,0.1c-0.2,0-0.3,0-0.5,0c0.2,0.9,0.3,1.9,0.3,2.8c-0.1,1.6-0.5,3.5-2.1,4.9
	c0,0-0.8,8.3,5.1,23.4c0,0,5.9,1,8.3-4.6C101.7,143.7,103.8,140.3,100.8,133.1z"/>
<path d="M349.1,138.3c-1.2-0.6-1.9-0.9-1.9-0.9l0.1-0.3c0,0,0.7,0.3,1.9,0.9L349.1,138.3z"/>
<path d="M333,212.3c-1.4,0-2.9-0.1-4.3-0.2l0-0.3c1.5,0.1,2.9,0.2,4.3,0.2L333,212.3z M337.3,212.3V212c1.5-0.1,2.9-0.2,4.3-0.3
	l0,0.3C340.2,212.1,338.8,212.2,337.3,212.3z M324.3,211.7c-1.4-0.2-2.8-0.4-4.3-0.7l0.1-0.3c1.5,0.3,2.9,0.5,4.3,0.7L324.3,211.7z
	 M345.9,211.4l-0.1-0.3c1.4-0.3,2.8-0.6,4.2-0.9l0.1,0.3C348.8,210.8,347.4,211.1,345.9,211.4L345.9,211.4z M354.3,209.2l-0.1-0.3
	c1.4-0.5,2.7-1,4-1.6l0.1,0.3C357.1,208.1,355.7,208.7,354.3,209.2L354.3,209.2z M362.2,205.6l-0.2-0.3c1.2-0.7,2.4-1.5,3.5-2.2
	l0.1-0.1l0.2,0.3l-0.1,0.1C364.6,204.1,363.5,204.9,362.2,205.6L362.2,205.6z M369.3,200.5l-0.2-0.3c1.1-1,2-2,2.9-3.1l0.3,0.2
	C371.3,198.4,370.3,199.5,369.3,200.5L369.3,200.5z M374.8,193.8l-0.3-0.2c0.8-1.2,1.4-2.5,2-3.8l0.3,0.1
	C376.2,191.3,375.5,192.5,374.8,193.8z M378.3,185.9l-0.3-0.1c0.4-1.4,0.7-2.8,0.9-4.2l0.3,0.1C379,183,378.7,184.5,378.3,185.9
	L378.3,185.9z M379.6,177.3h-0.4v-0.1c0-1.4-0.1-2.8-0.3-4.2l0.3,0c0.2,1.4,0.3,2.8,0.3,4.2L379.6,177.3z M378,168.8
	c-0.4-1.4-0.9-2.7-1.5-4.1l0.3-0.1c0.6,1.3,1.1,2.7,1.5,4.1L378,168.8z M374.6,160.9c-0.7-1.2-1.5-2.4-2.4-3.6l0.3-0.2
	c0.9,1.2,1.6,2.4,2.4,3.6L374.6,160.9z M369.6,153.9c-0.9-1.1-1.9-2.1-3-3.1l0.2-0.3c1.1,1,2.1,2.1,3,3.2L369.6,153.9z M363.5,147.8
	c-1.1-0.9-2.2-1.8-3.4-2.7l0.2-0.3c1.2,0.9,2.3,1.8,3.4,2.7L363.5,147.8z M356.5,142.6c-1.2-0.8-2.4-1.6-3.7-2.3l0.2-0.3
	c1.2,0.7,2.5,1.5,3.7,2.3L356.5,142.6z"/>
<path d="M315.8,210.1c-0.7-0.2-1.4-0.3-2.1-0.5l0.1-0.3l2.1,0.5L315.8,210.1z"/>
<path class="st3" d="M349.2,115.3l-8-7.5l-32.3,23.7L349.2,115.3z"/>
<path class="st3" d="M355.4,119.6l12.3,10.9l-58.8,1L355.4,119.6z"/>
<path class="st0" d="M308.9,131.4l41.4-0.7l-2.2,6.9L308.9,131.4z"/>
<path d="M26.3,134.2c0,0-0.5-0.6-1.3-1.7l0.3-0.2c0.8,1.1,1.3,1.6,1.3,1.6L26.3,134.2z"/>
<path d="M22.4,129.1c-0.8-1.1-1.7-2.3-2.5-3.4l0.3-0.2c0.8,1.2,1.7,2.3,2.5,3.4L22.4,129.1z M17.5,122.2c-0.8-1.2-1.6-2.4-2.3-3.6
	l0.3-0.2c0.7,1.2,1.5,2.4,2.3,3.6L17.5,122.2z M12.9,115c-0.7-1.2-1.5-2.5-2.1-3.7l0.3-0.2c0.7,1.2,1.4,2.4,2.1,3.7L12.9,115z
	 M8.8,107.6c-0.7-1.3-1.3-2.6-1.9-3.8l0.3-0.2c0.6,1.2,1.2,2.5,1.9,3.8L8.8,107.6z M5.1,99.9c-0.6-1.3-1.1-2.7-1.6-4l0.3-0.1
	c0.5,1.3,1,2.6,1.6,3.9L5.1,99.9z M2.2,91.9c-0.4-1.4-0.8-2.8-1.1-4.1l0.3-0.1c0.3,1.3,0.7,2.7,1.1,4.1L2.2,91.9z M0.3,83.6
	C0.1,82.2,0,80.8,0,79.4h0.4c0,1.4,0.1,2.8,0.3,4.2L0.3,83.6z M0.6,75.2l-0.3,0c0.2-1.4,0.5-2.8,0.9-4.2l0.3,0.1
	C1.1,72.4,0.7,73.8,0.6,75.2z M12.1,70.5c-0.9,0-1.8-0.2-2.6-0.6l0.1-0.3c0.8,0.3,1.6,0.5,2.5,0.5c0.5,0,1-0.1,1.5-0.3l0.1,0.3
	C13.2,70.4,12.7,70.5,12.1,70.5z M5.9,67.6c-0.6-0.6-1.2-1.2-1.7-1.9c-0.6,0.8-0.9,1.4-0.9,1.4l-0.1,0.2l-0.3-0.2L3,66.9
	c0,0,0.4-0.6,1-1.5c-0.3-0.4-0.5-0.8-0.7-1.2l0.3-0.2c0.2,0.4,0.4,0.7,0.6,1c0.3-0.5,0.8-1,1.2-1.5l0.3,0.2
	c-0.5,0.5-0.9,1.1-1.3,1.6c0.5,0.7,1.1,1.4,1.7,1.9L5.9,67.6z M16.7,67.1L16.4,67c0.2-0.5,0.2-1,0.2-1.5c0-0.9-0.2-1.7-0.6-2.5
	l0.3-0.2c0.4,0.8,0.7,1.7,0.7,2.6C17,66.1,16.9,66.6,16.7,67.1L16.7,67.1z M8.9,61.2l-0.2-0.3c0.9-0.5,1.9-0.8,2.9-0.8
	c0.4,0,0.9,0.1,1.3,0.2l-0.1,0.3c-0.4-0.1-0.8-0.2-1.2-0.2C10.7,60.4,9.7,60.7,8.9,61.2z M2,60.1c-0.2-1.4-0.2-2.9,0.1-4.3l0.3,0.1
	c-0.3,1.4-0.3,2.8-0.1,4.2L2,60.1z M3.8,52l-0.3-0.2C4,50.5,4.7,49.3,5.4,48l0.3,0.2C5,49.4,4.4,50.7,3.8,52z M7.8,44.5l-0.3-0.2
	c0.8-1.2,1.6-2.4,2.4-3.5l0.3,0.2C9.4,42.2,8.6,43.4,7.8,44.5z M12.9,37.7l-0.3-0.2c0.9-1.1,1.9-2.1,2.9-3.1l0.3,0.2
	C14.8,35.7,13.8,36.7,12.9,37.7L12.9,37.7z M18.8,31.7l-0.2-0.3c1.1-0.9,2.2-1.9,3.3-2.7l0.2,0.3C20.9,29.9,19.9,30.8,18.8,31.7
	L18.8,31.7z M25.5,26.5l-0.2-0.3c1.2-0.8,2.4-1.6,3.6-2.3l0.2,0.3C27.8,25,26.6,25.7,25.5,26.5L25.5,26.5z M32.7,22.1l-0.2-0.3
	c1.2-0.7,2.5-1.3,3.8-1.9l0.1,0.3C35.2,20.9,33.9,21.5,32.7,22.1L32.7,22.1z M40.4,18.6l-0.1-0.3c1.3-0.5,2.6-1,4-1.5l0.1,0.3
	C43,17.7,41.7,18.1,40.4,18.6L40.4,18.6z M48.4,15.9l-0.1-0.3c1.3-0.4,2.7-0.7,4.1-1.1l0.1,0.3C51.1,15.2,49.7,15.6,48.4,15.9
	L48.4,15.9z"/>
<path d="M56.6,13.9l-0.1-0.3c0.7-0.1,1.4-0.3,2.1-0.4l0.1,0.3L56.6,13.9z"/>
<path class="st3" d="M63.7,7.9l-7.4,7l36.2,0.9L63.7,7.9z"/>
<path class="st3" d="M71.5,0.7l-4.4,5l25.2,10.1L71.5,0.7z"/>
<path class="st0" d="M68,19.4l-0.9-4.3l25.1,0.6L68,19.4z"/>
<path d="M106.2,211.2l-0.1-107c0,0,0.4,4.8,5.4,8.9l68.1,47.9l18.5-1.6l65-45c0,0,6-3.7,5.1-10.1v107c0,0.4-0.1,0.9-0.3,1.3
	c-0.2,0.4-0.4,0.8-0.7,1.1c-0.3,0.3-0.7,0.6-1.1,0.7c-0.4,0.2-0.8,0.3-1.3,0.2H109.5c-0.4,0-0.9-0.1-1.3-0.3
	c-0.4-0.2-0.8-0.4-1.1-0.7c-0.3-0.3-0.6-0.7-0.7-1.1C106.3,212,106.2,211.6,106.2,211.2z"/>
<path d="M111.7,214.5l73.5-59.5c1.3-1,2.8-1.6,4.4-1.6c1.7,0,3.3,0.6,4.5,1.7l70.6,59.4H111.7z"/>
<path class="st2" d="M111.7,214.5l73.5-59.5c1.3-1,2.8-1.6,4.4-1.6c1.7,0,3.3,0.6,4.5,1.7l70.6,59.4H111.7z"/>
<path d="M310,165.4h-76.5c-2.1,0-3.8,1.7-3.8,3.8v51.9c0,2.1,1.7,3.8,3.8,3.8H310c2.1,0,3.8-1.7,3.8-3.8v-51.9
	C313.7,167.1,312.1,165.4,310,165.4z"/>
<path d="M232.7,224.9l34.8-28.4l11.8,0.2l30.2,28.2H232.7z"/>
<path class="st6" d="M232.7,224.9l34.8-28.4l11.8,0.2l30.2,28.2H232.7z"/>
<path class="st7" d="M231.5,94l-9.7-6.8L211.7,94V67.4h19.8V94z"/>
<path d="M268.2,196.9L230.9,172c-0.4-0.2-0.7-0.6-0.9-1c-0.2-0.4-0.3-0.8-0.3-1.3v-1.7c0-0.7,0.3-1.4,0.8-1.9
	c0.5-0.5,1.2-0.8,1.9-0.8h78.7c0.7,0,1.4,0.3,1.9,0.8c0.5,0.5,0.8,1.2,0.8,1.9v1.9c0,0.4-0.1,0.8-0.3,1.2c-0.2,0.4-0.5,0.7-0.8,0.9
	l-33.3,24.4c-1.7,1.2-3.7,1.8-5.7,1.8C271.7,198.4,269.8,197.9,268.2,196.9z"/>
<path class="st2" d="M268.2,196.9L230.9,172c-0.4-0.2-0.7-0.6-0.9-1c-0.2-0.4-0.3-0.8-0.3-1.3v-1.7c0-0.7,0.3-1.4,0.8-1.9
	c0.5-0.5,1.2-0.8,1.9-0.8h78.7c0.7,0,1.4,0.3,1.9,0.8c0.5,0.5,0.8,1.2,0.8,1.9v1.9c0,0.4-0.1,0.8-0.3,1.2c-0.2,0.4-0.5,0.7-0.8,0.9
	l-33.3,24.4c-1.7,1.2-3.7,1.8-5.7,1.8C271.7,198.4,269.8,197.9,268.2,196.9z"/>
<path class="st4" d="M75.1,122.8l1.5-19.1l16.2-0.4l-5.2,19.4H75.1z"/>
<path class="st3" d="M72.2,124.7h12.3v-1.9l1.2-19.3l-11.8,0.2L72.2,124.7z"/>
<path class="st8" d="M72.2,124.7h12.3v-1.9l1.2-19.3l-11.8,0.2L72.2,124.7z"/>
<path class="st1" d="M58,115.1c0,0-0.9,8.5,14.1,5.7c0,0,12-0.7,15.5-3.6v-4.2h-16c0,0,6.3-19.9,2.5-26c0,0-3.3-5.6-6.5-3.8
	c0,0-2.5,0.4-4.6,7.6c-0.4,1.3-0.8,2.5-1.3,3.8C60.2,98.1,57.4,106.3,58,115.1z"/>
<path class="st5" d="M87.5,113l1.4-4.2c0-0.1,0.1-0.2,0.2-0.3c0.1-0.1,0.2-0.1,0.3-0.1c0.1,0,0.2,0,0.2,0.1c0.1,0,0.1,0.1,0.2,0.2
	c0.1,0.1,0.1,0.1,0.1,0.2c0,0.1,0,0.2,0,0.2l-0.3,1.6c0,0,2.3-1.7,3.1,0c0,0,2.7,6.2-2.6,6.5h-2.6V113z"/>
<path class="st9" d="M75.2,75.2l0-2.2H82l-0.2,2.6c-1.1,0.4-2.2,0.6-3.3,0.5C77.3,76,76.2,75.7,75.2,75.2z"/>
<path class="st5" d="M87.6,64.1c0.4-6.4-2.9-11.9-7.4-12.2c-4.6-0.3-8.6,4.6-9.1,11.1s2.9,11.9,7.4,12.2
	C83.1,75.5,87.1,70.5,87.6,64.1z"/>
<path d="M82,52.3c0,0-2.2,8.3-10.9,11.2l-2.7-2.3l2.2-9.4l4-2.4L82,52.3z"/>
<path d="M80.3,53.8c0,0,1.3,4.6,8.2,5.7l-0.9-4.2l-4.4-3.6l-3.3-0.8L80.3,53.8z"/>
<path d="M80.7,52c0.2,1.4,0.2,2.8-0.1,4.2c-0.3,1.4-0.9,2.7-1.8,3.8c-0.5,0.5-1,1-1.6,1.4c-0.6,0.4-1.2,0.7-1.9,0.9
	c-0.3,0.1-0.7,0.2-1,0.4c-0.3,0.2-0.6,0.4-0.8,0.6c-0.5,0.5-0.9,1.1-1.1,1.8c0.2-0.7,0.5-1.3,1-1.8c0.2-0.3,0.5-0.5,0.8-0.6
	c0.3-0.2,0.6-0.3,1-0.4c0.3-0.1,0.7-0.2,1-0.4c0.3-0.2,0.6-0.3,0.9-0.5c0.6-0.4,1.1-0.9,1.5-1.4c0.9-1.1,1.5-2.3,1.8-3.7
	c0.2-0.7,0.3-1.4,0.3-2.1C80.8,53.4,80.8,52.7,80.7,52z"/>
</svg>
