<?xml version="1.0" encoding="utf-8"?>
<!-- Generator: Adobe Illustrator 27.0.0, SVG Export Plug-In . SVG Version: 6.00 Build 0)  -->
<svg version="1.1" id="Layer_1" xmlns="http://www.w3.org/2000/svg" xmlns:xlink="http://www.w3.org/1999/xlink" x="0px" y="0px"
	 viewBox="0 0 686.3 507.4" style="enable-background:new 0 0 686.3 507.4;" xml:space="preserve">
<style type="text/css">
	.st0{fill:#F0F0F0;}
	.st1{fill:#CACACA;}
	.st2{fill:#FCFCFC;}
	.st3{fill:#FFFFFF;}
	.st4{fill:#E4E4E4;}
	.st5{fill:#00558C;}
	.st6{fill:#3F3D56;}
	.st7{fill:#0284CC;}
	.st8{fill:#9E616A;}
	.st9{fill:#2F2E41;}
</style>
<path class="st0" d="M582.7,507.4h-29c-0.4-0.8-0.8-1.6-1.2-2.4c-3.3-7.2-4.8-15.1-6.1-23l-2.2-12.7c7,5.1,14,10.2,21,15.3
	c2.3,1.7,4.6,3.4,6.8,5.3c4.6,3.9,8.6,8.4,10.1,14.2c0.1,0.3,0.2,0.6,0.2,1C582.5,505.8,582.6,506.6,582.7,507.4z"/>
<path class="st0" d="M586.8,505c0,0.1,0,0.1,0,0.2c-0.1,0.8-0.3,1.5-0.5,2.2h-13c-0.4-0.8-0.8-1.6-1-2.4c-0.4-1.1-0.7-2.2-0.9-3.4
	c-0.4-3.9-0.2-7.9,0.7-11.7c0.2-1.2,0.5-2.5,0.8-3.8l1.5-7.1l7.7,12.4C584.6,495.6,587.3,500.1,586.8,505z"/>
<path class="st1" d="M685.3,36.6H1c-0.6,0-1-0.5-1-1c0-0.5,0.4-1,1-1h684.3c0.6,0,1,0.5,1,1C686.3,36.1,685.9,36.5,685.3,36.6z"/>
<ellipse class="st2" cx="23.3" cy="11.2" rx="10.9" ry="11.2"/>
<ellipse class="st2" cx="61.1" cy="11.2" rx="10.9" ry="11.2"/>
<ellipse class="st2" cx="98.8" cy="11.2" rx="10.9" ry="11.2"/>
<path class="st2" d="M662.7,6.8h-26.8c-1.1,0-2-1-2-2.1c0-1.1,0.9-2,2-2h26.8c1.1,0,2,1,2,2.1C664.7,5.9,663.8,6.8,662.7,6.8z"/>
<path class="st2" d="M662.7,14.4h-26.8c-1.1,0-2-1-2-2.1c0-1.1,0.9-2,2-2h26.8c1.1,0,2,1,2,2.1C664.7,13.5,663.8,14.4,662.7,14.4z"
	/>
<path class="st2" d="M662.7,22.1h-26.8c-1.1,0-2-1-2-2.1c0-1.1,0.9-2,2-2h26.8c1.1,0,2,1,2,2.1C664.7,21.2,663.8,22,662.7,22.1z"/>
<path class="st0" d="M584.4,382H64.8c-11.4,0-20.7-9.3-20.7-20.7V102.7c0-11.4,9.3-20.7,20.7-20.7h519.6c11.4,0,20.7,9.3,20.7,20.7
	v258.6C605.1,372.7,595.9,382,584.4,382z"/>
<path class="st3" d="M641.5,452.5H121.9c-11.4,0-20.7-9.3-20.7-20.7V173.2c0-11.4,9.3-20.7,20.7-20.7h519.6
	c11.4,0,20.7,9.3,20.7,20.7v258.6C662.1,443.3,652.9,452.5,641.5,452.5z"/>
<path class="st4" d="M641.5,452.5H121.9c-11.4,0-20.7-9.3-20.7-20.7V173.2c0-11.4,9.3-20.7,20.7-20.7h519.6
	c11.4,0,20.7,9.3,20.7,20.7v258.6C662.1,443.3,652.9,452.5,641.5,452.5z M121.9,155.5c-9.8,0-17.7,7.9-17.7,17.7v258.6
	c0,9.8,7.9,17.7,17.7,17.7h519.6c9.8,0,17.7-7.9,17.7-17.7V173.2c0-9.8-7.9-17.7-17.7-17.7L121.9,155.5z"/>
<path class="st5" d="M161.8,407.3h415.5V336c-0.1-15.2-6.4-29.6-17.3-40.2l-0.1-0.1c-7.4-7.4-32.2-26.3-57.9-24.7
	c-13.6,0.8-25.2,7.4-34.5,19.4c-29,37.5-67.2,24.8-87.4,14c-17.8-9.6-35.9-14.1-53.9-13.4c-25.2,1-60.8,10.3-86.7,49
	c-9.9,14.8-31.4,34.8-77.7,46.6L161.8,407.3z"/>
<path class="st6" d="M600.8,408.9H162.6c-0.8,0-1.4-0.6-1.4-1.4v-210c0-0.8,0.6-1.4,1.4-1.4c0.8,0,1.4,0.6,1.4,1.4v208.7h436.8
	c0.8,0,1.4,0.6,1.4,1.4S601.5,408.9,600.8,408.9L600.8,408.9z"/>
<circle class="st7" cx="325.3" cy="293.2" r="8.2"/>
<circle class="st7" cx="486.6" cy="271.7" r="8.2"/>
<circle class="st7" cx="406" cy="316" r="8.2"/>
<circle class="st7" cx="244.6" cy="328.1" r="8.2"/>
<circle class="st7" cx="567.3" cy="301.3" r="8.2"/>
<path class="st8" d="M662.6,327.1c-3.4-3.3-3.5-8.8-0.2-12.2c0.4-0.4,0.7-0.7,1.1-1l-8.9-29.4l15.3,4.5l6.1,27.2
	c2.6,4.1,1.3,9.4-2.7,12C669.9,330.4,665.5,329.9,662.6,327.1L662.6,327.1z"/>
<path class="st8" d="M518.7,152.6c-0.6,4.7,2.7,9.1,7.4,9.7c0.5,0.1,1,0.1,1.5,0.1l11.4,28.5l9.1-13.1l-12.2-25
	c-0.5-4.8-4.8-8.2-9.6-7.6C522.3,145.5,519.1,148.6,518.7,152.6z"/>
<polygon class="st8" points="647.5,494.8 637,494.8 631.9,454.2 647.5,454.2 "/>
<path class="st9" d="M650.2,505l-33.9,0v-0.4c0-7.3,5.9-13.2,13.2-13.2h0l20.7,0L650.2,505z"/>
<polygon class="st8" points="613,494.5 603,491.3 610.5,451.1 625.3,455.8 "/>
<path class="st9" d="M612.5,505l-32.3-10.2l0.1-0.4c2.2-7,9.6-10.8,16.6-8.6l0,0l19.8,6.3L612.5,505z"/>
<path class="st9" d="M600.6,296.5c0,0-15.6,24.5-10.1,46.4s11.5,63.9,11.5,63.9l29.9,71.2l22.3-0.9l-22.1-83.9L633,337
	c0,0,15.4-26.8,12.4-35.2C642.3,293.5,600.6,296.5,600.6,296.5z"/>
<path class="st9" d="M651.6,305.3c0,0,1.9,24.3-4.1,34.6s-12.4,49.5-12.4,49.5l-10.2,78.4l-21.1-6.9l18-87.8l14.2-69.1L651.6,305.3z
	"/>
<path class="st6" d="M659.1,187.6l-16.5-11.3l-25.1-0.7l-8.7,8.6l-13.3,6.8l-1.2,111c0,0,40,19.2,61.5,9.9l10.3-86.5
	C670.2,208.2,659.1,187.6,659.1,187.6z"/>
<path class="st6" d="M598.7,220.5h-44l-28.9-49.8l18.8-7.4l15.9,28.3l23-2.1l14.4-0.7c8.7-0.4,16.2,6.3,16.6,15.1
	c0,0.9,0,1.8-0.1,2.7l0,0C613.5,214.6,606.7,220.5,598.7,220.5z"/>
<circle class="st8" cx="632.1" cy="144.6" r="21.8"/>
<path class="st9" d="M658.3,139.6c-0.7-4.8-3.9-9.3-8.5-10.8c-1.8-5.3-6.7-9.2-12-10.9c-10.2-3.2-21.3,0.8-27,9.8
	c-0.4,0.6-1.7,2.2-1.6,3c0,1,1.5,2,2.3,2.6c1.9,1.4,3.9,2.7,6,3.7c7.8,4.1,5.2,10.4,5.1,17.7c-0.1,3.5,1.1,6.5,4.1,8.5
	c4.3,2.9,10.5,1.7,15.2,0.6c5.3-1.3,9.8-6,12.8-10.5C657.4,149.3,659,144.4,658.3,139.6z"/>
<polygon class="st6" points="658.1,215.5 676.5,306.9 649.3,308.4 "/>
<path class="st1" d="M677.1,506.2c0,0.7-0.5,1.2-1.2,1.2c0,0,0,0,0,0H534.7c-0.7,0-1.2-0.5-1.2-1.2s0.5-1.2,1.2-1.2H676
	C676.6,505,677.1,505.5,677.1,506.2z"/>
</svg>
