<svg width="46" height="43" viewBox="0 0 46 43" fill="none" xmlns="http://www.w3.org/2000/svg">
<path d="M37.6136 32.9682C37.8669 33.291 38.1122 33.6013 38.3628 33.9205C38.609 33.8672 38.7508 33.6849 38.9256 33.5595C39.5615 33.1043 40.2081 33.1665 40.6897 33.7747C42.0668 35.5156 43.4376 37.2628 44.7986 39.017C45.2686 39.6216 45.1981 40.252 44.6041 40.7393C43.8835 41.3315 43.1415 41.8987 42.4012 42.4669C41.7163 42.9924 41.0875 42.9141 40.5479 42.233C39.5472 40.9678 38.5563 39.6946 37.561 38.4249C37.2052 37.9705 36.8431 37.5206 36.4943 37.06C36.0056 36.4136 36.0903 35.7904 36.7209 35.2764C36.8796 35.1466 37.0669 35.0479 37.1962 34.8559C36.9724 34.55 36.7467 34.245 36.4747 33.9579C35.5365 34.6434 34.5269 35.1609 33.4174 35.4738C33.247 35.5218 33.0758 35.569 32.9028 35.6081C32.53 35.6934 32.5237 35.6908 32.521 36.0624C32.5166 36.6599 32.3596 37.2023 31.9494 37.6504C31.5311 38.1083 31.0191 38.3733 30.385 38.3697C30.2512 38.3697 30.1183 38.3733 29.9846 38.3733C22.3448 38.3733 14.7041 38.3733 7.06434 38.3724C6.7834 38.3724 6.49978 38.3964 6.22241 38.3271C5.25027 38.0861 4.56799 37.2299 4.55282 36.2323C4.54747 35.8775 4.54301 35.5218 4.55372 35.1671C4.55996 34.9555 4.47791 34.8843 4.26921 34.8808C3.76619 34.871 3.26229 34.9172 2.75927 34.8328C1.64889 34.6452 0.900608 33.8005 0.900608 32.6899C0.900608 22.5138 0.906851 12.3385 0.892581 2.16328C0.890797 1.14522 1.77821 -0.00443282 3.08124 1.2853e-05C5.26186 0.00712593 7.44249 0.00179112 9.62401 0.00179112C15.2606 0.00179112 20.8982 0.00356939 26.5357 1.2853e-05C27.4276 1.2853e-05 28.109 0.354778 28.5647 1.12299C28.7814 1.48931 28.8474 1.89743 28.8581 2.31443C28.8662 2.60962 28.8706 2.90659 28.8572 3.20179C28.8456 3.4463 28.9295 3.55122 29.1863 3.53877C29.5119 3.52277 29.8401 3.55033 30.1647 3.53255C31.5783 3.4543 32.5344 4.58528 32.5264 5.89498C32.5059 9.41506 32.5193 12.9351 32.5193 16.4552C32.5193 16.5735 32.5309 16.6935 32.5175 16.81C32.4872 17.0678 32.5995 17.1745 32.851 17.2234C33.6395 17.3782 34.394 17.644 35.103 18.0183C37.9392 19.5174 39.6623 21.8541 40.1528 25.006C40.5943 27.8459 39.8121 30.3871 37.9392 32.5833C37.8339 32.706 37.7305 32.8295 37.6127 32.9674L37.6136 32.9682ZM23.7762 20.0856C23.5203 20.0856 23.358 20.0856 23.1947 20.0856C22.2752 20.0856 21.3548 20.0918 20.4353 20.082C19.9412 20.0767 19.6406 19.7619 19.6647 19.3076C19.687 18.8835 19.9804 18.6327 20.4852 18.6309C22.013 18.6265 23.5408 18.6247 25.0695 18.6327C25.3317 18.6336 25.5528 18.5785 25.7776 18.4344C26.6061 17.9045 27.5025 17.5284 28.4568 17.2795C29.1926 17.0874 29.9409 17.0074 30.6954 16.9718C30.9201 16.9612 31.0272 16.8962 31.0066 16.6642C30.9986 16.5762 31.0066 16.4872 31.0066 16.3983C31.0066 12.9529 31.0066 9.50664 31.0066 6.06125C31.0066 5.94299 31.0093 5.82474 31.0031 5.70648C30.9781 5.27881 30.7346 5.03163 30.3047 5.0014C30.187 4.99251 30.0675 4.99873 29.9489 4.99873C22.3385 4.99873 14.7291 4.99873 7.11874 4.99873C7.01528 4.99873 6.91093 4.99517 6.80748 4.99962C6.35084 5.01918 6.10022 5.24324 6.03958 5.6967C6.02174 5.8274 6.0262 5.96255 6.0262 6.09503C6.0262 16.0036 6.0262 25.9121 6.0262 35.8206C6.0262 35.9975 6.0262 36.1736 6.06366 36.3496C6.13233 36.6644 6.34192 36.8307 6.63535 36.8991C6.76288 36.9285 6.90112 36.9151 7.03401 36.9151C14.689 36.9151 22.343 36.9151 29.9979 36.9151C30.1166 36.9151 30.237 36.9231 30.3538 36.9089C30.8051 36.852 31.0566 36.5141 31.0066 36.066C30.9897 35.9166 30.9237 35.8499 30.7828 35.857C30.5143 35.8695 30.2512 35.8197 29.9855 35.7975C27.7906 35.6188 25.8989 34.7607 24.3087 33.2528C24.0492 33.0065 23.7959 32.9158 23.4462 32.9167C18.7737 32.9265 14.1003 32.9238 9.4278 32.922C9.23605 32.922 9.04251 32.9362 8.85165 32.8918C8.46547 32.802 8.20326 32.4988 8.21664 32.1476C8.23001 31.7999 8.51809 31.4861 8.89267 31.4318C9.03805 31.4105 9.18878 31.4194 9.33683 31.4194C13.6392 31.4194 17.9407 31.4194 22.2431 31.4167C22.401 31.4167 22.5642 31.4541 22.7515 31.3669C22.2645 30.5614 21.9033 29.7096 21.658 28.8098C21.6179 28.6613 21.5269 28.6293 21.3985 28.6284C21.2647 28.6284 21.1318 28.6266 20.9981 28.6266C17.1264 28.6266 13.2548 28.6266 9.38231 28.6266C9.2191 28.6266 9.055 28.631 8.89357 28.6133C8.50293 28.5706 8.22645 28.2789 8.21485 27.9153C8.20415 27.5507 8.50828 27.2075 8.89624 27.1631C9.04251 27.1462 9.19234 27.1551 9.34129 27.1551C13.1683 27.1551 16.9962 27.1551 20.8232 27.1533C20.9963 27.1533 21.1755 27.1871 21.3789 27.0955C21.3584 26.1913 21.3486 25.2835 21.5608 24.4005C21.3343 24.3214 21.155 24.3516 20.9793 24.3508C17.0925 24.349 13.2058 24.349 9.31988 24.349C9.15667 24.349 8.99078 24.3588 8.83114 24.3347C8.35755 24.2645 8.09177 23.7577 8.29334 23.3256C8.4619 22.9637 8.76781 22.8881 9.13794 22.889C13.2468 22.8943 17.3565 22.8926 21.4654 22.8926C21.584 22.8926 21.7026 22.889 21.8213 22.8926C21.9533 22.897 22.0415 22.8508 22.096 22.7201C22.4928 21.774 23.0494 20.9258 23.7771 20.082L23.7762 20.0856ZM27.3446 3.4792C27.3446 3.02396 27.3562 2.58117 27.3411 2.13927C27.3295 1.80851 27.1404 1.60757 26.814 1.51243C26.6392 1.46175 26.4617 1.4662 26.2842 1.4662C18.6747 1.4662 11.0653 1.4662 3.45582 1.4662C3.2935 1.4662 3.13207 1.4662 2.96886 1.49732C2.613 1.56489 2.43284 1.7934 2.37131 2.12593C2.34722 2.25486 2.35704 2.3909 2.35704 2.52427C2.35704 12.4612 2.35704 22.3991 2.35704 32.3361C2.35704 32.4694 2.3499 32.6037 2.36952 32.7344C2.42303 33.0829 2.64779 33.3435 2.96351 33.3612C3.47723 33.3897 3.99362 33.3986 4.55282 33.3461V32.7602C4.55282 23.9471 4.55282 15.1331 4.55282 6.31998C4.55282 6.09859 4.54926 5.87631 4.55461 5.65491C4.57334 4.74355 5.16911 3.94155 6.03422 3.64102C6.38027 3.52099 6.73524 3.53699 7.0902 3.53699C13.6312 3.53521 20.1731 3.5361 26.7141 3.53432C26.904 3.53432 27.0976 3.56544 27.3446 3.4792ZM38.7579 26.4313C38.831 22.0923 35.21 18.4807 30.8309 18.4593C26.6481 18.438 22.8763 21.7927 22.8291 26.3255C22.7818 30.8912 26.5125 34.3393 30.7462 34.3642C35.177 34.3909 38.8087 30.7587 38.7579 26.4313ZM37.7938 36.3221C39.0834 37.9652 40.3419 39.5683 41.6217 41.1981C42.2496 40.7073 42.8516 40.2369 43.4857 39.7417C42.2014 38.1048 40.9385 36.4954 39.6623 34.8683C39.0246 35.3645 38.4306 35.8259 37.7938 36.3221Z" fill="#0061B2"/>
<path d="M8.2095 14.8921C8.2095 13.8278 8.20058 12.7626 8.21217 11.6983C8.22199 10.7878 8.77851 10.0659 9.6249 9.81513C9.78544 9.76711 9.94597 9.76178 10.1083 9.76178C12.0963 9.76178 14.0834 9.75822 16.0714 9.76178C17.0399 9.76356 17.7962 10.4206 17.9398 11.3773C17.9684 11.5667 17.9871 11.7597 17.9871 11.9499C17.9907 13.9167 17.9889 15.8835 17.9898 17.8502C17.9898 18.1614 17.9719 18.4717 17.8747 18.7696C17.617 19.5609 16.9088 20.0802 16.0615 20.082C14.1039 20.0873 12.1453 20.0873 10.1877 20.082C9.05321 20.0793 8.22466 19.2649 8.21217 18.1285C8.19969 17.0491 8.2095 15.9697 8.2095 14.8903V14.8921ZM9.72122 14.9232C9.72122 15.9288 9.71944 16.9344 9.72122 17.94C9.72301 18.5011 9.84073 18.6256 10.3919 18.6265C12.2015 18.63 14.0111 18.63 15.8207 18.6265C16.3398 18.6256 16.4825 18.4806 16.4834 17.972C16.4852 15.9457 16.4852 13.9203 16.4834 11.8939C16.4834 11.3444 16.3541 11.2128 15.8074 11.212C13.9977 11.2093 12.1881 11.2093 10.3785 11.212C9.83895 11.212 9.7239 11.3267 9.72211 11.861C9.71855 12.8818 9.72122 13.9025 9.72122 14.9232Z" fill="#0061B2"/>
<path d="M24.3568 11.5596C23.1127 11.5596 21.8685 11.5596 20.6243 11.5596C20.4469 11.5596 20.2712 11.5596 20.1026 11.4822C19.8092 11.3453 19.6504 11.0999 19.6611 10.7789C19.6718 10.4642 19.8538 10.2214 20.1588 10.1165C20.3149 10.0632 20.4772 10.0552 20.6404 10.0552C23.1144 10.056 25.5876 10.0552 28.0617 10.0578C28.1937 10.0578 28.3292 10.0676 28.4577 10.0961C28.8278 10.1805 29.0579 10.4659 29.0543 10.818C29.0508 11.1443 28.8251 11.4369 28.4853 11.5231C28.3444 11.5587 28.1919 11.5578 28.0447 11.5578C26.8157 11.5605 25.5858 11.5596 24.3568 11.5596Z" fill="#0061B2"/>
<path d="M24.3693 14.3514C25.5689 14.3514 26.7676 14.3514 27.9671 14.3514C28.1 14.3514 28.2347 14.3479 28.3667 14.3612C28.7787 14.4021 29.057 14.7 29.0543 15.0867C29.0516 15.4691 28.7645 15.7731 28.3596 15.8176C28.2713 15.8274 28.1821 15.8229 28.0929 15.8229C25.6055 15.8229 23.118 15.8229 20.6306 15.8229C20.5414 15.8229 20.4522 15.8274 20.3639 15.8185C19.9323 15.7785 19.6513 15.4717 19.662 15.0574C19.6727 14.6582 19.9385 14.3772 20.3711 14.3612C20.9035 14.3408 21.4368 14.3523 21.9702 14.3514C22.7693 14.3514 23.5702 14.3514 24.3693 14.3514Z" fill="#0061B2"/>
<path d="M30.8024 32.8055C27.053 32.81 24.3863 29.7024 24.38 26.4224C24.3738 23.2402 26.896 19.9975 30.8238 20.0135C34.5046 20.0278 37.2301 22.9112 37.2194 26.4215C37.2078 30.1728 34.1781 32.8215 30.8024 32.8055ZM35.7175 26.4029C35.7871 23.9355 33.7242 21.4913 30.7703 21.4966C28.3266 21.5011 25.8703 23.3967 25.8721 26.4206C25.8739 29.3592 28.249 31.3491 30.8309 31.3269C33.7322 31.302 35.7844 28.904 35.7175 26.4029Z" fill="#0061B2"/>
<path d="M30.6472 24.0689C30.5714 24.0743 30.4243 24.0912 30.2762 24.092C29.8561 24.0947 29.5529 23.8422 29.4976 23.4528C29.4477 23.1024 29.7215 22.7352 30.1103 22.6436C30.839 22.472 31.5551 22.5449 32.2437 22.8161C33.4852 23.3052 34.2798 24.1987 34.6062 25.4942C34.7151 25.9281 34.5028 26.3015 34.089 26.4278C33.7304 26.5372 33.3692 26.3398 33.2096 25.9468C33.1873 25.8925 33.1659 25.8365 33.148 25.7805C32.7663 24.606 31.9422 24.0236 30.6481 24.068L30.6472 24.0689Z" fill="#0061B2"/>
</svg>
